<svg version="1.1" id="Layer_1" xmlns="http://www.w3.org/2000/svg" xmlns:xlink="http://www.w3.org/1999/xlink" x="0px" y="0px"
	 width="100%" viewBox="0 0 480 480" enable-background="new 0 0 480 480" xml:space="preserve">
<path fill="#000000" opacity="1.000000" stroke="none" 
	d="
M447.000000,481.000000 
	C298.000000,481.000000 149.500000,481.000000 1.000000,481.000000 
	C1.000000,321.000000 1.000000,161.000000 1.000000,1.000000 
	C161.000000,1.000000 321.000000,1.000000 481.000000,1.000000 
	C481.000000,161.000000 481.000000,321.000000 481.000000,481.000000 
	C469.833344,481.000000 458.666656,481.000000 447.000000,481.000000 
M393.001404,254.364197 
	C393.001404,256.884308 393.001404,259.404419 393.001404,261.924530 
	C392.556549,262.077271 392.111664,262.230011 391.666809,262.382751 
	C386.724731,258.205627 381.782684,254.028534 376.784332,249.803864 
	C382.002686,244.977142 386.730957,240.603729 391.090881,236.571014 
	C390.111389,234.195358 389.592834,232.835876 388.997467,231.510895 
	C386.166992,225.211533 383.058136,224.632980 378.209015,229.255005 
	C374.070618,233.199631 369.742859,236.945557 366.000061,240.326599 
	C366.000061,234.584839 366.110992,228.702423 365.955688,222.827026 
	C365.871368,219.638123 365.053436,216.459534 365.072266,213.279297 
	C365.095367,209.377991 364.266479,206.806519 359.630585,206.959991 
	C355.118896,207.109344 352.215729,209.293015 352.026428,213.401794 
	C351.615540,222.320694 351.215698,231.243179 351.035217,240.168701 
	C350.870300,248.325089 351.039703,256.487671 350.989685,264.647095 
	C350.933380,273.834747 350.739288,276.427979 361.712097,274.090302 
	C365.167877,273.354126 365.933075,271.272614 365.829803,268.535309 
	C365.717865,265.567810 365.110229,262.619019 364.718750,259.662048 
	C365.174683,259.428802 365.630646,259.195557 366.086578,258.962311 
	C368.342224,261.424805 370.346161,264.198914 372.914825,266.273956 
	C376.432373,269.115570 380.102325,272.343048 384.252930,273.594635 
	C386.473145,274.264160 389.836060,271.131287 392.689972,269.727905 
	C393.060150,269.545868 393.470093,269.444733 393.834656,269.315704 
	C396.155792,273.984528 401.048462,275.561829 407.031952,272.805481 
	C410.750397,271.092560 408.553467,267.501709 408.312683,264.492157 
	C407.888489,259.190125 406.341064,253.330902 410.650330,248.984253 
	C414.345520,245.257019 418.867004,242.358932 422.939392,238.992981 
	C427.217804,235.456787 422.042389,232.305893 422.326965,228.867569 
	C422.416626,227.784653 421.360199,226.554672 420.652557,225.511154 
	C420.539490,225.344391 419.478210,225.755402 418.889740,225.986847 
	C415.341644,227.382202 411.803619,228.803070 408.522919,230.111420 
	C407.860138,228.960449 407.379059,226.795670 406.163849,226.241898 
	C400.515167,223.667664 393.181519,228.584335 393.031677,234.918198 
	C392.885956,241.076157 393.001404,247.240295 393.001404,254.364197 
M210.924057,244.188507 
	C208.892975,238.087540 205.712418,232.842270 199.489456,230.285950 
	C193.601089,227.867035 187.533249,226.995270 181.000793,230.383408 
	C181.000793,225.352661 181.000977,221.204529 181.000763,217.056396 
	C181.000244,206.687683 180.585922,206.199219 170.138474,207.138275 
	C168.700302,207.267532 166.550873,209.000763 166.241272,210.340469 
	C165.395599,214.000137 165.099640,217.842911 165.048569,221.619400 
	C164.906662,232.110168 165.013718,242.604156 164.993912,253.096802 
	C164.983627,258.544708 164.771942,263.997894 164.979843,269.436127 
	C165.025574,270.632751 166.419571,272.730499 167.269821,272.770386 
	C170.166458,272.906372 173.093872,272.267303 176.016769,272.004761 
	C178.073044,271.820038 180.352402,271.144470 182.167480,271.761261 
	C190.243896,274.505707 197.342651,273.321411 203.826431,267.712097 
	C210.906387,261.586945 211.466217,253.516403 210.924057,244.188507 
M231.672852,214.000137 
	C221.125748,214.778442 214.917923,221.363159 215.000031,231.685181 
	C215.051651,238.175049 220.857407,245.267044 227.412521,246.998215 
	C230.847885,247.905472 234.480270,248.535965 237.558304,250.168747 
	C239.757751,251.335480 242.703537,254.039185 242.607254,255.918289 
	C242.452454,258.939636 239.226135,260.862701 235.888580,259.905457 
	C232.966263,259.067291 230.046478,257.752411 227.547043,256.034790 
	C224.858917,254.187469 222.750610,251.907913 219.451462,255.003998 
	C214.443481,259.703766 213.587006,262.541779 216.947739,266.330719 
	C223.665909,273.904938 233.044388,274.032501 242.111923,274.909363 
	C242.264374,274.924072 242.431900,274.825439 242.586884,274.765442 
	C255.911194,269.610046 261.023254,259.724915 254.917603,245.929565 
	C251.691956,238.641403 244.732681,236.214569 237.503662,235.075195 
	C231.405853,234.114105 229.804153,232.900452 230.758774,227.265762 
	C234.331894,228.185287 238.222549,228.416946 241.256317,230.149292 
	C245.703308,232.688583 248.733475,231.161530 252.080978,228.486374 
	C255.784210,225.526917 255.926453,223.827286 252.371994,220.876007 
	C246.629532,216.108047 240.049713,213.767395 231.672852,214.000137 
M159.909454,244.149948 
	C157.023071,240.017807 154.722687,235.267517 151.139313,231.870621 
	C140.809937,222.078827 127.904480,224.914917 119.430130,233.577774 
	C112.475983,240.686646 110.914696,249.870224 115.253487,259.417999 
	C118.665993,266.927460 123.998039,272.746063 131.998962,274.840942 
	C141.338516,277.286316 157.736847,268.368927 159.471481,256.916779 
	C160.062225,253.016647 159.822266,248.990677 159.909454,244.149948 
M285.533508,261.000366 
	C284.050049,261.000366 282.566620,261.000366 281.083160,261.000366 
	C280.965027,260.432281 280.846893,259.864197 280.728760,259.296112 
	C285.138611,257.039764 289.542328,254.771271 293.959656,252.529648 
	C302.744934,248.071503 303.730133,240.172897 298.703400,232.719284 
	C294.768005,226.883881 288.287323,225.616760 281.261230,225.899353 
	C269.874359,226.357315 259.406586,239.046677 261.619049,250.249283 
	C261.811646,251.224548 261.535797,252.450195 261.086761,253.368454 
	C258.359131,258.946320 259.708130,262.885223 265.210480,265.122986 
	C265.646790,265.300446 266.023041,265.651215 266.392914,265.962219 
	C268.699127,267.901276 270.784485,270.202576 273.332611,271.736664 
	C283.103455,277.619202 292.347961,275.119995 300.701172,269.641907 
	C304.182709,267.358673 303.761383,263.100220 300.337036,258.873596 
	C297.911682,255.880035 295.880890,256.939697 293.229614,258.989624 
	C291.480377,260.342102 288.711609,260.376099 285.533508,261.000366 
M78.000015,223.441772 
	C77.623482,235.484833 86.375862,231.251633 92.989525,231.068100 
	C92.989525,240.067169 93.245880,248.547470 92.795471,256.990082 
	C92.692703,258.916382 89.912491,262.381653 88.777641,262.221008 
	C86.416481,261.886719 83.929619,259.937805 82.290504,257.984436 
	C81.370255,256.887756 82.133232,254.449020 81.971794,252.629684 
	C81.687302,249.423645 80.822395,246.870911 76.695671,246.953369 
	C70.641197,247.074326 68.385399,248.400238 68.001434,252.550140 
	C66.499420,268.784149 76.033730,274.902802 89.977608,274.773743 
	C96.320999,274.715027 103.668060,273.976257 106.729317,266.618103 
	C108.130554,263.250031 108.861183,259.365204 108.881851,255.709030 
	C108.927681,247.602676 108.429993,239.487015 107.955971,231.386719 
	C107.735603,227.620972 107.299934,223.830261 106.522049,220.143677 
	C105.420784,214.924438 103.855644,214.205078 98.597794,215.196442 
	C92.963936,216.258698 87.310768,217.341537 81.615570,217.908676 
	C78.279701,218.240891 77.859428,219.977997 78.000015,223.441772 
M336.429474,273.001587 
	C344.180054,272.326477 346.160461,268.110107 342.776611,261.076447 
	C340.945099,257.269440 339.471741,257.864075 336.115204,259.043152 
	C332.583923,260.283600 328.410309,259.695496 324.517395,259.906372 
	C329.259155,256.797424 333.794891,254.690536 338.457428,252.916931 
	C344.546814,250.600586 346.089111,243.076767 344.388031,238.046310 
	C340.040894,225.190918 330.399872,223.836166 319.007690,227.171066 
	C309.674683,229.903214 301.595612,246.054901 306.722687,258.874695 
	C311.565918,270.984680 324.410431,276.392761 336.429474,273.001587 
z"/>
<path fill="#FF9300" opacity="1.000000" stroke="none" 
	d="
M393.001770,253.882965 
	C393.001404,247.240295 392.885956,241.076157 393.031677,234.918198 
	C393.181519,228.584335 400.515167,223.667664 406.163849,226.241898 
	C407.379059,226.795670 407.860138,228.960449 408.522919,230.111420 
	C411.803619,228.803070 415.341644,227.382202 418.889740,225.986847 
	C419.478210,225.755402 420.539490,225.344391 420.652557,225.511154 
	C421.360199,226.554672 422.416626,227.784653 422.326965,228.867569 
	C422.042389,232.305893 427.217804,235.456787 422.939392,238.992981 
	C418.867004,242.358932 414.345520,245.257019 410.650330,248.984253 
	C406.341064,253.330902 407.888489,259.190125 408.312683,264.492157 
	C408.553467,267.501709 410.750397,271.092560 407.031952,272.805481 
	C401.048462,275.561829 396.155792,273.984528 393.834656,269.315704 
	C393.470093,269.444733 393.060150,269.545868 392.689972,269.727905 
	C389.836060,271.131287 386.473145,274.264160 384.252930,273.594635 
	C380.102325,272.343048 376.432373,269.115570 372.914825,266.273956 
	C370.346161,264.198914 368.342224,261.424805 366.086578,258.962311 
	C365.630646,259.195557 365.174683,259.428802 364.718750,259.662048 
	C365.110229,262.619019 365.717865,265.567810 365.829803,268.535309 
	C365.933075,271.272614 365.167877,273.354126 361.712097,274.090302 
	C350.739288,276.427979 350.933380,273.834747 350.989685,264.647095 
	C351.039703,256.487671 350.870300,248.325089 351.035217,240.168701 
	C351.215698,231.243179 351.615540,222.320694 352.026428,213.401794 
	C352.215729,209.293015 355.118896,207.109344 359.630585,206.959991 
	C364.266479,206.806519 365.095367,209.377991 365.072266,213.279297 
	C365.053436,216.459534 365.871368,219.638123 365.955688,222.827026 
	C366.110992,228.702423 366.000061,234.584839 366.000061,240.326599 
	C369.742859,236.945557 374.070618,233.199631 378.209015,229.255005 
	C383.058136,224.632980 386.166992,225.211533 388.997467,231.510895 
	C389.592834,232.835876 390.111389,234.195358 391.090881,236.571014 
	C386.730957,240.603729 382.002686,244.977142 376.784332,249.803864 
	C381.782684,254.028534 386.724731,258.205627 391.666809,262.382751 
	C392.111664,262.230011 392.556549,262.077271 393.001404,261.924530 
	C393.001404,259.404419 393.001404,256.884308 393.001770,253.882965 
z"/>
<path fill="#551FB2" opacity="1.000000" stroke="none" 
	d="
M210.953354,244.625198 
	C211.466217,253.516403 210.906387,261.586945 203.826431,267.712097 
	C197.342651,273.321411 190.243896,274.505707 182.167480,271.761261 
	C180.352402,271.144470 178.073044,271.820038 176.016769,272.004761 
	C173.093872,272.267303 170.166458,272.906372 167.269821,272.770386 
	C166.419571,272.730499 165.025574,270.632751 164.979843,269.436127 
	C164.771942,263.997894 164.983627,258.544708 164.993912,253.096802 
	C165.013718,242.604156 164.906662,232.110168 165.048569,221.619400 
	C165.099640,217.842911 165.395599,214.000137 166.241272,210.340469 
	C166.550873,209.000763 168.700302,207.267532 170.138474,207.138275 
	C180.585922,206.199219 181.000244,206.687683 181.000763,217.056396 
	C181.000977,221.204529 181.000793,225.352661 181.000793,230.383408 
	C187.533249,226.995270 193.601089,227.867035 199.489456,230.285950 
	C205.712418,232.842270 208.892975,238.087540 210.953354,244.625198 
M195.906677,248.917862 
	C194.856171,247.073532 194.039474,243.883102 192.708755,243.651978 
	C189.472427,243.089844 184.761185,242.671722 182.950867,244.491013 
	C180.964584,246.487167 180.997025,251.106003 181.292969,254.481796 
	C181.426682,256.007080 184.112549,257.930267 186.010849,258.564392 
	C192.055771,260.583710 195.071762,257.744537 195.906677,248.917862 
z"/>
<path fill="#FF9300" opacity="1.000000" stroke="none" 
	d="
M232.123108,214.000122 
	C240.049713,213.767395 246.629532,216.108047 252.371994,220.876007 
	C255.926453,223.827286 255.784210,225.526917 252.080978,228.486374 
	C248.733475,231.161530 245.703308,232.688583 241.256317,230.149292 
	C238.222549,228.416946 234.331894,228.185287 230.758774,227.265762 
	C229.804153,232.900452 231.405853,234.114105 237.503662,235.075195 
	C244.732681,236.214569 251.691956,238.641403 254.917603,245.929565 
	C261.023254,259.724915 255.911194,269.610046 242.586884,274.765442 
	C242.431900,274.825439 242.264374,274.924072 242.111923,274.909363 
	C233.044388,274.032501 223.665909,273.904938 216.947739,266.330719 
	C213.587006,262.541779 214.443481,259.703766 219.451462,255.003998 
	C222.750610,251.907913 224.858917,254.187469 227.547043,256.034790 
	C230.046478,257.752411 232.966263,259.067291 235.888580,259.905457 
	C239.226135,260.862701 242.452454,258.939636 242.607254,255.918289 
	C242.703537,254.039185 239.757751,251.335480 237.558304,250.168747 
	C234.480270,248.535965 230.847885,247.905472 227.412521,246.998215 
	C220.857407,245.267044 215.051651,238.175049 215.000031,231.685181 
	C214.917923,221.363159 221.125748,214.778442 232.123108,214.000122 
z"/>
<path fill="#551FB2" opacity="1.000000" stroke="none" 
	d="
M159.935669,244.586090 
	C159.822266,248.990677 160.062225,253.016647 159.471481,256.916779 
	C157.736847,268.368927 141.338516,277.286316 131.998962,274.840942 
	C123.998039,272.746063 118.665993,266.927460 115.253487,259.417999 
	C110.914696,249.870224 112.475983,240.686646 119.430130,233.577774 
	C127.904480,224.914917 140.809937,222.078827 151.139313,231.870621 
	C154.722687,235.267517 157.023071,240.017807 159.935669,244.586090 
M136.379730,240.166916 
	C130.181396,242.093979 127.776993,247.471664 130.551956,253.923141 
	C132.232635,257.830536 135.330643,260.566010 139.802124,259.872620 
	C144.279160,259.178375 142.677872,255.150330 142.984177,252.296036 
	C143.107513,251.146835 142.944702,249.969788 143.011948,248.811203 
	C143.266800,244.419693 141.072617,241.830399 136.379730,240.166916 
z"/>
<path fill="#FF9300" opacity="1.000000" stroke="none" 
	d="
M285.966431,261.000427 
	C288.711609,260.376099 291.480377,260.342102 293.229614,258.989624 
	C295.880890,256.939697 297.911682,255.880035 300.337036,258.873596 
	C303.761383,263.100220 304.182709,267.358673 300.701172,269.641907 
	C292.347961,275.119995 283.103455,277.619202 273.332611,271.736664 
	C270.784485,270.202576 268.699127,267.901276 266.392914,265.962219 
	C266.023041,265.651215 265.646790,265.300446 265.210480,265.122986 
	C259.708130,262.885223 258.359131,258.946320 261.086761,253.368454 
	C261.535797,252.450195 261.811646,251.224548 261.619049,250.249283 
	C259.406586,239.046677 269.874359,226.357315 281.261230,225.899353 
	C288.287323,225.616760 294.768005,226.883881 298.703400,232.719284 
	C303.730133,240.172897 302.744934,248.071503 293.959656,252.529648 
	C289.542328,254.771271 285.138611,257.039764 280.728760,259.296112 
	C280.846893,259.864197 280.965027,260.432281 281.083160,261.000366 
	C282.566620,261.000366 284.050049,261.000366 285.966431,261.000427 
M281.545380,240.007706 
	C276.970276,240.697495 276.366852,243.681885 277.320740,247.945831 
	C280.324585,246.007660 283.203156,244.150330 286.740448,241.867966 
	C284.833893,241.055618 283.592072,240.526489 281.545380,240.007706 
z"/>
<path fill="#551FB2" opacity="1.000000" stroke="none" 
	d="
M78.000504,223.006439 
	C77.859428,219.977997 78.279701,218.240891 81.615570,217.908676 
	C87.310768,217.341537 92.963936,216.258698 98.597794,215.196442 
	C103.855644,214.205078 105.420784,214.924438 106.522049,220.143677 
	C107.299934,223.830261 107.735603,227.620972 107.955971,231.386719 
	C108.429993,239.487015 108.927681,247.602676 108.881851,255.709030 
	C108.861183,259.365204 108.130554,263.250031 106.729317,266.618103 
	C103.668060,273.976257 96.320999,274.715027 89.977608,274.773743 
	C76.033730,274.902802 66.499420,268.784149 68.001434,252.550140 
	C68.385399,248.400238 70.641197,247.074326 76.695671,246.953369 
	C80.822395,246.870911 81.687302,249.423645 81.971794,252.629684 
	C82.133232,254.449020 81.370255,256.887756 82.290504,257.984436 
	C83.929619,259.937805 86.416481,261.886719 88.777641,262.221008 
	C89.912491,262.381653 92.692703,258.916382 92.795471,256.990082 
	C93.245880,248.547470 92.989525,240.067169 92.989525,231.068100 
	C86.375862,231.251633 77.623482,235.484833 78.000504,223.006439 
z"/>
<path fill="#FF9300" opacity="1.000000" stroke="none" 
	d="
M335.988220,273.007019 
	C324.410431,276.392761 311.565918,270.984680 306.722687,258.874695 
	C301.595612,246.054901 309.674683,229.903214 319.007690,227.171066 
	C330.399872,223.836166 340.040894,225.190918 344.388031,238.046310 
	C346.089111,243.076767 344.546814,250.600586 338.457428,252.916931 
	C333.794891,254.690536 329.259155,256.797424 324.517395,259.906372 
	C328.410309,259.695496 332.583923,260.283600 336.115204,259.043152 
	C339.471741,257.864075 340.945099,257.269440 342.776611,261.076447 
	C346.160461,268.110107 344.180054,272.326477 335.988220,273.007019 
M320.415619,244.095490 
	C320.334534,244.984238 320.253448,245.872971 320.133362,247.189102 
	C323.465973,245.998352 326.389832,245.154984 329.104065,243.869171 
	C329.993378,243.447891 330.984680,241.693100 330.753662,240.883698 
	C330.514313,240.045105 328.472870,238.845169 327.872833,239.138672 
	C325.433563,240.331802 323.245087,242.037613 320.415619,244.095490 
z"/>
<path fill="#000000" opacity="1.000000" stroke="none" 
	d="
M195.941589,249.324829 
	C195.071762,257.744537 192.055771,260.583710 186.010849,258.564392 
	C184.112549,257.930267 181.426682,256.007080 181.292969,254.481796 
	C180.997025,251.106003 180.964584,246.487167 182.950867,244.491013 
	C184.761185,242.671722 189.472427,243.089844 192.708755,243.651978 
	C194.039474,243.883102 194.856171,247.073532 195.941589,249.324829 
z"/>
<path fill="#000000" opacity="1.000000" stroke="none" 
	d="
M136.708649,240.363373 
	C141.072617,241.830399 143.266800,244.419693 143.011948,248.811203 
	C142.944702,249.969788 143.107513,251.146835 142.984177,252.296036 
	C142.677872,255.150330 144.279160,259.178375 139.802124,259.872620 
	C135.330643,260.566010 132.232635,257.830536 130.551956,253.923141 
	C127.776993,247.471664 130.181396,242.093979 136.708649,240.363373 
z"/>
<path fill="#000000" opacity="1.000000" stroke="none" 
	d="
M281.947815,240.002533 
	C283.592072,240.526489 284.833893,241.055618 286.740448,241.867966 
	C283.203156,244.150330 280.324585,246.007660 277.320740,247.945831 
	C276.366852,243.681885 276.970276,240.697495 281.947815,240.002533 
z"/>
<path fill="#000000" opacity="1.000000" stroke="none" 
	d="
M320.689880,243.824951 
	C323.245087,242.037613 325.433563,240.331802 327.872833,239.138672 
	C328.472870,238.845169 330.514313,240.045105 330.753662,240.883698 
	C330.984680,241.693100 329.993378,243.447891 329.104065,243.869171 
	C326.389832,245.154984 323.465973,245.998352 320.133362,247.189102 
	C320.253448,245.872971 320.334534,244.984238 320.689880,243.824951 
z"/>
</svg>